# xmcd
#
# Track frame offsets:
#	150
#	15274
#	31917
#	46612
#	63597
#	82348
#	98061
#	119059
#	145529
#	165640
#	180848
#	202087
#	219252
#	241111
#
# Disc length: 3436 seconds
#
# Revision: 0
# Processed by: cddbd v1.4PL0 Copyright (c) Steve Scherf et al.
# Submitted via: EasyCDDAExtractor 5.0.0.0
#
DISCID=b00d6a0e
DTITLE=Soul Affair - Relations
DYEAR=1995
DGENRE=Soul
TTITLE0=Remember
TTITLE1=Friends
TTITLE2=The Piano
TTITLE3=Love Will Save the Day
TTITLE4=Remember Reprise
TTITLE5=Let the People Sing
TTITLE6=Regardless of Why
TTITLE7=Funk Breeze
TTITLE8=We Care Enough
TTITLE9=If I Were Looking at You
TTITLE10=Unknown
TTITLE11=Unknown
TTITLE12=Unknown
TTITLE13=Switzerland
EXTD=
EXTT0=
EXTT1=
EXTT2=
EXTT3=
EXTT4=
EXTT5=
EXTT6=
EXTT7=
EXTT8=
EXTT9=
EXTT10=
EXTT11=
EXTT12=
EXTT13=
PLAYORDER=
